<svg xmlns="http://www.w3.org/2000/svg" version="1.1" xmlns:xlink="http://www.w3.org/1999/xlink" xmlns:svgjs="http://svgjs.dev/svgjs" width="2000" height="353" viewBox="0 0 2000 353"><g transform="matrix(1,0,0,1,-1.2121211275922406,-0.3916620362039964)"><svg viewBox="0 0 396 70" data-background-color="#ffffff" preserveAspectRatio="xMidYMid meet" height="353" width="2000" xmlns="http://www.w3.org/2000/svg" xmlns:xlink="http://www.w3.org/1999/xlink"><g id="tight-bounds" transform="matrix(1,0,0,1,0.24000001673675797,0.07766669273166826)"><svg viewBox="0 0 395.52 69.84466661453666" height="69.84466661453666" width="395.52"><g><svg viewBox="0 0 488.52737862151196 86.26879017974572" height="69.84466661453666" width="395.52"><g transform="matrix(1,0,0,1,0,11.922821218763701)"><svg viewBox="0 0 395.52 62.42314774221832" height="62.42314774221832" width="395.52"><g id="textblocktransform"><svg viewBox="0 0 395.52 62.42314774221832" height="62.42314774221832" width="395.52" id="textblock"><g><svg viewBox="0 0 395.52 62.42314774221832" height="62.42314774221832" width="395.52"><g transform="matrix(1,0,0,1,0,0)"><svg width="395.52" viewBox="0.3500000238418579 -35.25 228.07998657226562 36" height="62.42314774221832" data-palette-color="#202046"><path d="M11.75-35.25Q14.75-35.25 17.05-34.2 19.35-33.15 21.3-31.05L21.3-31.05 18.35-27.65Q16.8-29.05 15.33-29.75 13.85-30.45 12.2-30.45L12.2-30.45Q10.3-30.45 9.2-29.28 8.1-28.1 8.1-26.2L8.1-26.2Q8.1-24.3 9.25-23.1 10.4-21.9 13.75-20.6L13.75-20.6Q18.05-18.85 20.08-16.5 22.1-14.15 22.1-9.85L22.1-9.85Q22.1-6.9 20.75-4.48 19.4-2.05 16.88-0.65 14.35 0.75 11 0.75L11 0.75Q7.55 0.75 5-0.48 2.45-1.7 0.35-3.95L0.35-3.95 3.55-7.45Q5.35-5.85 7-5 8.65-4.15 10.6-4.15L10.6-4.15Q12.9-4.15 14.18-5.58 15.45-7 15.45-9.45L15.45-9.45Q15.45-11.6 14.33-12.98 13.2-14.35 10.15-15.5L10.15-15.5Q5.55-17.35 3.53-19.75 1.5-22.15 1.5-25.75L1.5-25.75Q1.5-28.5 2.83-30.65 4.15-32.8 6.5-34.02 8.85-35.25 11.75-35.25L11.75-35.25ZM47.6-34.55L47.6-9.7Q47.6-5.15 44.77-2.23 41.95 0.7 36.7 0.7L36.7 0.7Q31.35 0.7 28.55-2.18 25.75-5.05 25.75-9.7L25.75-9.7 25.75-34.55 32.1-34.55 32.1-10Q32.1-7.1 33.2-5.68 34.3-4.25 36.7-4.25L36.7-4.25Q39.05-4.25 40.15-5.68 41.25-7.1 41.25-10L41.25-10 41.25-34.55 47.6-34.55ZM79.14-34.55L81.34 0 75.3 0 74.69-14.6Q74.39-22.6 74.39-26L74.39-26 74.44-28.6 69.69-3.8 63.7-3.8 58.74-28.65Q58.8-27.15 58.8-24.05L58.8-24.05Q58.8-18.8 58.59-14.4L58.59-14.4 58.05 0 52.09 0 54.3-34.55 62.3-34.55 66.8-10.2 71-34.55 79.14-34.55ZM112.34-34.55L114.54 0 108.49 0 107.89-14.6Q107.59-22.6 107.59-26L107.59-26 107.64-28.6 102.89-3.8 96.89-3.8 91.94-28.65Q91.99-27.15 91.99-24.05L91.99-24.05Q91.99-18.8 91.79-14.4L91.79-14.4 91.24 0 85.29 0 87.49-34.55 95.49-34.55 99.99-10.2 104.19-34.55 112.34-34.55ZM141.44 0L134.99 0 133.29-8.1 124.39-8.1 122.74 0 116.39 0 125.09-34.55 132.79-34.55 141.44 0ZM128.84-29.7L125.39-12.9 132.34-12.9 128.84-29.7ZM144.34-34.55L150.69-34.55 150.69-5.25 161.84-5.25 161.14 0 144.34 0 144.34-34.55ZM165.19-34.55L171.53-34.55 171.53 0 165.19 0 165.19-34.55ZM199.13-34.55L199.13 0 191.03 0 182.28-28.3Q182.68-24.7 182.91-21.68 183.13-18.65 183.13-14.5L183.13-14.5 183.13 0 177.53 0 177.53-34.55 185.58-34.55 194.33-6.25Q194.03-8.05 193.76-11.35 193.48-14.65 193.48-18.05L193.48-18.05 193.48-34.55 199.13-34.55ZM205.13-34.55L211.48-34.55 211.48 0 205.13 0 205.13-34.55ZM221.23-34.55L227.68-34.55 218.28-18.9 228.43 0 221.43 0 211.73-18.45 221.23-34.55Z" opacity="1" transform="matrix(1,0,0,1,0,0)" fill="#202046" class="undefined-text-0" data-fill-palette-color="primary" id="text-0"></path></svg></g></svg></g></svg></g></svg></g><g transform="matrix(1,0,0,1,410.2566070263919,0)"><svg viewBox="0 0 78.27077159512001 86.26879017974572" height="86.26879017974572" width="78.27077159512001"><g><svg xmlns="http://www.w3.org/2000/svg" xmlns:xlink="http://www.w3.org/1999/xlink" version="1.1" x="0" y="0" viewBox="5.359000205993652 0.9212803840637207 89.04205322265625 98.1407241821289" enable-background="new 0 0 100 100" xml:space="preserve" height="86.26879017974572" width="78.27077159512001" class="icon-icon-0" data-fill-palette-color="accent" id="icon-0"><g fill="#fe633d" data-fill-palette-color="accent"><path d="M94.078 41.762c1.787-13.531-3.702-29.744-19.914-37.02C61.345-1.011 38.719-1.001 26.785 9.878c-10.408 9.49-12.754 22.959-12.754 22.959s-1.074 5.004-1.074 6.665c0 1.588 1.788 2.213 1.583 3.029-0.204 0.816-2.207 3.151-3.738 5.703-1.53 2.551-5.443 8.222-5.443 9.752s0.916 2.097 2.753 2.709c1.836 0.612 3.265 1.122 3.571 1.836s-0.875 2.754-0.938 4.209c-0.054 1.241 0.4 1.379 1.33 1.74 1.153 0.449 2.923 0.507 2.923 0.507s-3.943 0.745-3.551 2.359c0.406 1.675 2.781 2.015 2.992 3.327 0.105 0.662-2.008 4.053-1.73 7.354 0.363 4.308 4.444 6.236 10.914 5.198 6.167-0.99 9.067-1.91 9.86 1.491 0.499 2.141 0.446 5.753 1.364 9.836 0.038 0.163 0.077 0.338 0.114 0.51h47.327c-2.024-3.689-4.685-9.61-4.685-17.144 0-5.169 0.514-12.842 4.221-16.923C86.471 59.879 92.643 52.634 94.078 41.762zM74.537 52.486c0 0-0.619 6.769-5.588 7.639-4.255 0.744-7.08-3.354-7.08-3.354l-1.398 6.613h-2.979c0 0-2.701-9.966-4.564-11.644-1.864-1.677-4.752-2.142-4.752-2.142s-3.912-0.28-6.428-2.794c-2.515-2.516-0.186-5.59-0.186-5.59s-3.167 0.187-9.595-1.21c-6.427-1.398-4.471-5.497-4.471-5.497s-1.677 0.28-3.074-1.49c-0.993-1.258-1.717-4.335 0.093-7.918 1.622-3.209 4.469-4.323 4.469-4.323s-1.054-1.338 1.169-3.207c1.161-0.976 3.211-0.947 3.211-0.947s0.501-2.151 3.587-3.546c3.496-1.579 5.822-0.273 5.822-0.273s0.934-2.046 3.635-2.978c2.702-0.931 5.4 0.649 5.4 0.649s1.828-1.653 5.182-1.653c3.353 0 4.601 1.747 4.601 1.747s2.02-1.038 4.471-0.187c2.316 0.805 2.986 3.05 2.986 3.05s1.673-1.187 4-0.255c2.329 0.932 3.262 3.447 3.262 3.447s1.605-0.235 3.202 1.183c1.185 1.054 0.802 3.009 0.802 3.009s1.976 0.656 3.158 3.021c1.101 2.201-0.456 4.059-0.456 4.059s3.26 2.422 3.726 8.756c0.568 7.728-4.377 9.222-4.377 9.222s0.978 2.452-0.746 5.123C79.273 54.631 74.537 52.486 74.537 52.486z" fill="#fe633d" data-fill-palette-color="accent"></path></g></svg></g></svg></g></svg></g><defs></defs></svg><rect width="395.52" height="69.84466661453666" fill="none" stroke="none" visibility="hidden"></rect></g></svg></g></svg>